<?xml version="1.0" encoding="UTF-8" standalone="no"?>
<svg
   width="20"
   height="20"
   version="1.1"
   id="svg4"
   sodipodi:docname="instagram-hover.svg"
   inkscape:version="1.2.2 (732a01da63, 2022-12-09)"
   xmlns:inkscape="http://www.inkscape.org/namespaces/inkscape"
   xmlns:sodipodi="http://sodipodi.sourceforge.net/DTD/sodipodi-0.dtd"
   xmlns="http://www.w3.org/2000/svg"
   xmlns:svg="http://www.w3.org/2000/svg">
  <defs
     id="defs8" />
  <sodipodi:namedview
     id="namedview6"
     pagecolor="#ffffff"
     bordercolor="#000000"
     borderopacity="0.25"
     inkscape:showpageshadow="2"
     inkscape:pageopacity="0.0"
     inkscape:pagecheckerboard="0"
     inkscape:deskcolor="#d1d1d1"
     showgrid="false"
     inkscape:zoom="40.2"
     inkscape:cx="10"
     inkscape:cy="10.012438"
     inkscape:window-width="1920"
     inkscape:window-height="991"
     inkscape:window-x="-9"
     inkscape:window-y="-9"
     inkscape:window-maximized="1"
     inkscape:current-layer="svg4" />
  <path
     d="M10 1.802c2.67 0 2.987.01 4.042.059 2.71.123 3.975 1.409 4.099 4.099.048 1.054.057 1.37.057 4.04 0 2.672-.01 2.988-.057 4.042-.124 2.687-1.387 3.975-4.1 4.099-1.054.048-1.37.058-4.041.058-2.67 0-2.987-.01-4.04-.058-2.718-.124-3.977-1.416-4.1-4.1-.048-1.054-.058-1.37-.058-4.041 0-2.67.01-2.986.058-4.04.124-2.69 1.387-3.977 4.1-4.1 1.054-.048 1.37-.058 4.04-.058zM10 0C7.284 0 6.944.012 5.877.06 2.246.227.227 2.242.061 5.877.01 6.944 0 7.284 0 10s.012 3.057.06 4.123c.167 3.632 2.182 5.65 5.817 5.817 1.067.048 1.407.06 4.123.06s3.057-.012 4.123-.06c3.629-.167 5.652-2.182 5.816-5.817.05-1.066.061-1.407.061-4.123s-.012-3.056-.06-4.122C19.777 2.249 17.76.228 14.124.06 13.057.01 12.716 0 10 0zm0 4.865a5.135 5.135 0 100 10.27 5.135 5.135 0 000-10.27zm0 8.468a3.333 3.333 0 110-6.666 3.333 3.333 0 010 6.666zm5.338-9.87a1.2 1.2 0 100 2.4 1.2 1.2 0 000-2.4z"
     fill="#2C7566"
     fill-rule="nonzero"
     id="path2"
     style="fill:#ffffff" />
</svg>
